<svg xmlns="http://www.w3.org/2000/svg" fill="black" viewBox="0 0 1920 686">
    <path d="M0,471.09c.94-8.9,1.82-17.81,2.82-26.71,4.26-38.22,15-74.71,30.68-109.68,34.37-76.81,80.07-146.6,132.57-212.11A1343.18,1343.18,0,0,1,268.15,8.74a16.16,16.16,0,0,1,4.53-3.42c-.77,1.49-1.52,3-2.32,4.47-26.55,49.35-47.81,100.72-58.79,155.91-6.88,34.61-9.15,69.38-.74,104.12,12.82,53,45,89.62,94.73,111.13,31.48,13.62,64.68,17.29,98.69,16.67,60.14-1.09,118.22-13.93,175.78-29.93,71.65-19.91,143.07-40.63,214.89-59.9,123.73-33.2,247.68-65.56,371.54-98.26l375-99L1907.19,14a10.16,10.16,0,0,1,5.45-.23q-12.06,5.24-24.12,10.46Q1548.89,170.67,1209.22,317,946.63,429.69,683.43,540.93q-113.74,48.2-228.27,94.51c-49.17,19.91-100,34.74-152.65,42.21-41.85,5.93-83.91,9.13-126,2.45-54.37-8.63-101.84-30.69-137.39-74.21-22.9-28-35.07-60.52-38.24-96.49A35.76,35.76,0,0,0,0,505.1Z"/>
</svg>
